<svg width="700" height="540" xmlns="http://www.w3.org/2000/svg" xml:space="preserve" enable-background="new 0 0 960 540" version="1.1">
 <g>
  <title>Layer 1</title>
  <rect stroke="null" x="2.00001" y="1" opacity="0" id="svg_2" height="540" width="699.99996" fill="#FFFFFF"/>
  <g id="组_37">
   <path d="m162.633,58.284l103.237,103.237c10.154,10.153 10.154,26.616 0,36.77l0,0c-10.153,10.153 -26.616,10.153 -36.77,0l-103.237,-103.238c-10.154,-10.154 -10.154,-26.616 0,-36.77l0,0c10.154,-10.153 26.616,-10.153 36.77,0.001z" fill="#B9EDB1" id="矩形_16"/>
   <circle r="242" cy="270" cx="333" fill="#B6EDAE" id="椭圆_1"/>
   <path d="m541.481,385.335l38.184,38.184c12.888,12.887 12.888,33.781 0,46.669l0,0c-12.887,12.887 -33.781,12.887 -46.669,0l-38.184,-38.184c-12.888,-12.888 -12.888,-33.782 0,-46.669l0,0c12.888,-12.888 33.783,-12.888 46.669,0z" fill="#B9EDB1" id="矩形_13"/>
   <path d="m74.633,91.284l103.237,103.237c10.154,10.153 10.154,26.616 0,36.77l0,0c-10.153,10.153 -26.616,10.153 -36.77,0l-103.237,-103.238c-10.154,-10.154 -10.154,-26.616 0,-36.77l0,0c10.154,-10.153 26.616,-10.153 36.77,0.001z" fill="#B9EDB1" id="矩形_15"/>
   <path d="m542.844,291.881l57.275,57.275c7.615,7.615 7.615,19.962 0,27.577l0,0c-7.615,7.615 -19.962,7.615 -27.577,0l-57.275,-57.275c-7.615,-7.615 -7.615,-19.962 0,-27.577l0,0c7.615,-7.615 19.962,-7.615 27.577,0z" fill="#B9EDB1" id="矩形_14"/>
  </g>
  <g transform="matrix(0.996 0.087 -0.087 0.996 397.632 75.767)" id="矩形_24">
   <path id="svg_3" d="m-119.47279,12.79431l194,0c14.911,0 27,12.088 27,27l0,248c0,14.911 -12.088,27 -27,27l-194,0c-14.912,0 -27,-12.089 -27,-27l0,-248c0,-14.911 12.088,-27 27,-27z" fill="#FFC670"/>
   <path id="svg_4" d="m76.89621,314.69331c-0.783,0.068 -1.579,0.103 -2.369,0.103l-194,0c-14.889,0 -27.002,-12.113 -27.002,-27.002l0,-248c-0.001,-14.108 10.589,-25.672 24.633,-26.899c0.783,-0.068 1.58,-0.103 2.369,-0.103l194,0c14.889,0 27.002,12.113 27.002,27.002l0,248c0.001,14.108 -10.589,25.672 -24.633,26.899zm-196.997,-281.869c-3.572,0.312 -6.37,3.373 -6.37,6.97l0,248.001c0,3.858 3.14,6.998 6.999,6.998l193.999,0c3.863,0.007 6.999,-3.192 6.998,-6.998l0,-248c-0.001,-3.859 -3.14,-6.998 -6.998,-6.998l-194,0c-0.212,-0.001 -0.421,0.008 -0.628,0.027z" fill="#3D3D63"/>
  </g>
  <g id="矩形_23">
   <path id="svg_5" d="m210,127l198,0c13.808,0 25,11.193 25,25l0,252c0,13.807 -11.192,25 -25,25l-198,0c-13.807,0 -25,-11.193 -25,-25l0,-252c0,-13.807 11.193,-25 25,-25z" fill="#FFF6E6"/>
   <path id="svg_6" d="m408,429l-198,0c-13.785,0 -25,-11.215 -25,-25l0,-252c0,-13.785 11.215,-25 25,-25l198,0c13.785,0 25,11.215 25,25l0,252c0,13.785 -11.215,25 -25,25zm-198,-282c-2.757,0 -5,2.243 -5,5l0,252c0,2.757 2.243,5 5,5l198,0c2.757,0 5,-2.243 5,-5l0,-252c0,-2.757 -2.243,-5 -5,-5l-198,0z" fill="#3D3D63"/>
  </g>
  <path d="m204.995,379.563l59.005,9.437l48.529,0l0,20c0,0 -79.65,0.113 -105.759,-0.111c-0.2,-0.406 -1.464,-0.406 -1.772,-4.399c-0.014,-9.214 -0.003,-24.927 -0.003,-24.927z" fill="#FFB038" id="路径_95"/>
  <rect id="svg_7" height="53" width="8" fill="#FFC670" y="356" x="213"/>
  <rect id="svg_8" height="19" width="8" fill="#FFC670" y="390" x="228"/>
  <path id="svg_9" d="m351,469l-98,0c-2.761,0 -5,-2.238 -5,-5s2.239,-5 5,-5l98,0c2.762,0 5,2.238 5,5s-2.238,5 -5,5z" fill="#3D3D63"/>
  <path id="svg_10" d="m519,493l-145,0c-2.762,0 -5,-2.238 -5,-5s2.238,-5 5,-5l145,0c2.762,0 5,2.238 5,5s-2.238,5 -5,5z" fill="#3D3D63"/>
  <path id="svg_11" d="m214,469l-67,0c-2.761,0 -5,-2.238 -5,-5s2.239,-5 5,-5l67,0c2.761,0 5,2.238 5,5s-2.239,5 -5,5z" fill="#3D3D63"/>
  <path id="svg_12" d="m394,469l-26,0c-2.762,0 -5,-2.238 -5,-5s2.238,-5 5,-5l26,0c2.762,0 5,2.238 5,5s-2.238,5 -5,5z" fill="#3D3D63"/>
  <path id="svg_13" d="m234,469c-1.32,0 -2.6,-0.53 -3.54,-1.46c-0.93,-0.94 -1.46,-2.23 -1.46,-3.54c0,-1.311 0.53,-2.601 1.46,-3.54c0.93,-0.93 2.22,-1.46 3.54,-1.46c1.32,0 2.61,0.53 3.54,1.46c0.93,0.939 1.46,2.229 1.46,3.54c0,1.31 -0.53,2.6 -1.46,3.54c-0.93,0.93 -2.22,1.46 -3.54,1.46z" fill="#3D3D63"/>
  <path id="svg_14" d="m655,312.213c-0.512,0 -1.023,-0.195 -1.414,-0.586l-21.213,-21.213c-0.781,-0.781 -0.781,-2.047 0,-2.828l21.213,-21.213c0.781,-0.781 2.047,-0.781 2.828,0l21.213,21.213c0.781,0.781 0.781,2.047 0,2.828l-21.213,21.213c-0.391,0.391 -0.902,0.586 -1.414,0.586zm-18.385,-23.213l18.385,18.385l18.385,-18.385l-18.385,-18.385l-18.385,18.385z" fill="#B9EDB1"/>
  <path id="svg_15" d="m81.101,218.9c-0.512,0 -1.024,-0.195 -1.414,-0.586l-9.899,-9.899c-0.781,-0.781 -0.781,-2.047 0,-2.828l9.899,-9.899c0.78,-0.781 2.048,-0.781 2.828,0l9.899,9.899c0.781,0.781 0.781,2.047 0,2.828l-9.899,9.899c-0.39,0.391 -0.902,0.586 -1.414,0.586zm-7.071,-11.9l7.071,7.071l7.071,-7.071l-7.071,-7.071l-7.071,7.071z" fill="#B9EDB1"/>
  <path id="svg_16" d="m544,328.9c-0.53,0 -1.039,-0.211 -1.414,-0.586l-9.899,-9.9c-0.781,-0.781 -0.781,-2.047 0,-2.828l9.899,-9.899c0.781,-0.781 2.047,-0.781 2.828,0l9.899,9.899c0.781,0.781 0.781,2.047 0,2.828l-9.899,9.9c-0.375,0.375 -0.884,0.586 -1.414,0.586zm-7.071,-11.9l7.071,7.072l7.071,-7.072l-7.071,-7.071l-7.071,7.071z" fill="#FFFFFF"/>
  <path id="svg_17" d="m397,67.9c-0.512,0 -1.023,-0.195 -1.414,-0.586l-9.899,-9.899c-0.781,-0.781 -0.781,-2.047 0,-2.828l9.899,-9.899c0.781,-0.781 2.047,-0.781 2.828,0l9.899,9.899c0.781,0.781 0.781,2.047 0,2.828l-9.899,9.899c-0.391,0.391 -0.902,0.586 -1.414,0.586zm-7.071,-11.9l7.071,7.071l7.071,-7.071l-7.071,-7.07l-7.071,7.07z" fill="#FFFFFF"/>
  <g id="椭圆_10">
   <circle id="svg_20" r="13.5" cy="113.5" cx="60.5" fill="none"/>
   <path id="svg_21" d="m60.5,127c-7.444,0 -13.5,-6.056 -13.5,-13.5s6.056,-13.5 13.5,-13.5s13.5,6.056 13.5,13.5s-6.056,13.5 -13.5,13.5zm0,-23c-5.238,0 -9.5,4.262 -9.5,9.5s4.262,9.5 9.5,9.5s9.5,-4.262 9.5,-9.5s-4.262,-9.5 -9.5,-9.5z" fill="#FFFFFF"/>
  </g>
  <g id="椭圆_12">
   <circle id="svg_22" r="9.5" cy="98.5" cx="300.5" fill="none"/>
   <path id="svg_23" d="m300.5,108c-5.238,0 -9.5,-4.262 -9.5,-9.5s4.262,-9.5 9.5,-9.5s9.5,4.262 9.5,9.5s-4.262,9.5 -9.5,9.5zm0,-15c-3.033,0 -5.5,2.467 -5.5,5.5s2.467,5.5 5.5,5.5s5.5,-2.467 5.5,-5.5s-2.467,-5.5 -5.5,-5.5z" fill="#FFFFFF"/>
  </g>
  <g id="椭圆_15">
   <circle id="svg_26" r="9" cy="37" cx="221" fill="none"/>
   <path id="svg_27" d="m221,46c-4.962,0 -9,-4.038 -9,-9s4.038,-9 9,-9s9,4.038 9,9s-4.038,9 -9,9zm0,-14c-2.757,0 -5,2.243 -5,5s2.243,5 5,5s5,-2.243 5,-5s-2.243,-5 -5,-5z" fill="#B9EDB1"/>
  </g>
  <g id="椭圆_14">
   <circle id="svg_28" r="15" cy="200" cx="560" fill="none"/>
   <path id="svg_29" d="m560,215c-8.271,0 -15,-6.729 -15,-15s6.729,-15 15,-15s15,6.729 15,15s-6.729,15 -15,15zm0,-26c-6.065,0 -11,4.935 -11,11s4.935,11 11,11s11,-4.935 11,-11s-4.935,-11 -11,-11z" fill="#FFFFFF"/>
  </g>
  <path id="svg_30" d="m363,222l-108,0c-5.523,0 -10,-4.477 -10,-10s4.477,-10 10,-10l108,0c5.522,0 10,4.477 10,10s-4.478,10 -10,10z" fill="#3D3D63"/>
  <path id="svg_31" d="m334,188l-50,0c-5.523,0 -10,-4.477 -10,-10s4.477,-10 10,-10l50,0c5.522,0 10,4.477 10,10s-4.478,10 -10,10z" fill="#3D3D63"/>
  <path id="svg_32" d="m363,256l-108,0c-5.523,0 -10,-4.477 -10,-10s4.477,-10 10,-10l108,0c5.522,0 10,4.477 10,10s-4.478,10 -10,10z" fill="#3D3D63"/>
  <g id="svg_33">
   <path d="m256,426.996c-3.866,0 -7,-3.134 -7,-7l0,-100.365c0,-3.866 3.134,-7 7,-7l123.646,0l18.678,-33.234l92.676,0l0,140.6c0,3.866 -3.134,7 -7,7l-228,0l0,-0.001z" fill="#96DDFF" id="联合_1_1_"/>
   <path id="svg_34" d="m484,436.996l-228,0c-9.374,0 -17,-7.626 -17,-17l0,-100.365c0,-9.374 7.626,-17 17,-17l117.795,0l15.811,-28.134c1.771,-3.15 5.104,-5.101 8.718,-5.101l92.676,0c5.522,0 10,4.478 10,10l0,140.6c0,9.374 -7.626,17 -17,17zm-225,-20l222,0l0,-127.6l-76.826,0l-15.811,28.134c-1.771,3.15 -5.104,5.101 -8.718,5.101l-120.645,0l0,94.365z" fill="#3D3D63"/>
  </g>
  <path id="svg_35" d="m457,390l-35,0c-5.522,0 -10,-4.478 -10,-10s4.478,-10 10,-10l35,0c5.522,0 10,4.478 10,10s-4.478,10 -10,10z" fill="#3D3D63"/>
  <path d="m259,387.563l121.812,9.437l100.188,0l0,20l-222,0l0,-29.437z" fill="#69BAF9" id="路径_35"/>
  <rect id="svg_36" height="55" width="8" fill="#4DA6FF" y="362" x="300"/>
  <rect id="svg_37" height="34.5" width="8" fill="#4DA6FF" y="382.5" x="278"/>
  <rect id="svg_38" height="24" width="8" fill="#4DA6FF" y="393" x="322"/>
  <rect id="svg_39" height="19" width="8" fill="#4DA6FF" y="398" x="344"/>
  <rect id="svg_40" height="15" width="8" fill="#4DA6FF" y="402" x="366"/>
  <circle id="svg_44" cx="88" cy="411" r="28" stroke="#b6edae" stroke-width="4" fill="none"/>
  <circle id="svg_45" cx="539" cy="67" r="10" stroke="#b6edae" stroke-width="4" fill="none"/>
 </g>

</svg>